<svg xmlns="http://www.w3.org/2000/svg" width="1692.8565673828125" height="1038.2349853515625" viewBox="-921.0924682617188 -434.1426086425781 1692.8565673828125 1038.2349853515625"><title>Neo4j Graph Visualization</title><desc>Created using Neo4j (http://www.neo4j.com/)</desc><g class="layer relationships"><g class="relationship" transform="translate(206.00417696496294 236.69317246254116) rotate(199.2412378859114)"><path class="outline" fill="#A5ABB6" stroke="none" d="M 25 0.5 L 270.8594181564647 0.5 L 270.8594181564647 -0.5 L 25 -0.5 Z M 299.5351994064647 0.5 L 545.3946175629294 0.5 L 545.3946175629294 3.5 L 552.3946175629294 0 L 545.3946175629294 -3.5 L 545.3946175629294 -0.5 L 299.5351994064647 -0.5 Z"/><text text-anchor="middle" pointer-events="none" font-size="8px" fill="#000000" x="285.1973087814647" y="3" transform="rotate(180 285.1973087814647 0)" font-family="sans-serif">knows</text></g><g class="relationship" transform="translate(244.52006848696155 112.19452545379607) rotate(186.4302437183734)"><path class="outline" fill="#A5ABB6" stroke="none" d="M 25 0.5 L 275.83809998865513 0.5 L 275.83809998865513 -0.5 L 25 -0.5 Z M 304.51388123865513 0.5 L 555.3519812273103 0.5 L 555.3519812273103 3.5 L 562.3519812273103 0 L 555.3519812273103 -3.5 L 555.3519812273103 -0.5 L 304.51388123865513 -0.5 Z"/><text text-anchor="middle" pointer-events="none" font-size="8px" fill="#000000" x="290.17599061365513" y="3" transform="rotate(180 290.17599061365513 0)" font-family="sans-serif">knows</text></g><g class="relationship" transform="translate(367.20219284483153 575.0923978689186) rotate(216.8139542964899)"><path class="outline" fill="#A5ABB6" stroke="none" d="M 25 0.5 L 423.3011749795139 0.5 L 423.3011749795139 -0.5 L 25 -0.5 Z M 451.9769562295139 0.5 L 850.2781312090278 0.5 L 850.2781312090278 3.5 L 857.2781312090278 0 L 850.2781312090278 -3.5 L 850.2781312090278 -0.5 L 451.9769562295139 -0.5 Z"/><text text-anchor="middle" pointer-events="none" font-size="8px" fill="#000000" x="437.6390656045139" y="3" transform="rotate(180 437.6390656045139 0)" font-family="sans-serif">knows</text></g><g class="relationship" transform="translate(0.8664421745326365 438.8592535578908) rotate(229.09521632179815)"><path class="outline" fill="#A5ABB6" stroke="none" d="M 25 0.5 L 241.7843258531422 0.5 L 241.7843258531422 -0.5 L 25 -0.5 Z M 270.4601071031422 0.5 L 487.2444329562844 0.5 L 487.2444329562844 3.5 L 494.2444329562844 0 L 487.2444329562844 -3.5 L 487.2444329562844 -0.5 L 270.4601071031422 -0.5 Z"/><text text-anchor="middle" pointer-events="none" font-size="8px" fill="#000000" x="256.1222164781422" y="3" transform="rotate(180 256.1222164781422 0)" font-family="sans-serif">knows</text></g><g class="relationship" transform="translate(47.15967238497632 -119.854038903339) rotate(516.7120862674807)"><path class="outline" fill="#A5ABB6" stroke="none" d="M 25 0.5 L 192.4419063818321 0.5 L 192.4419063818321 -0.5 L 25 -0.5 Z M 221.1176876318321 0.5 L 388.5595940136642 0.5 L 388.5595940136642 3.5 L 395.5595940136642 0 L 388.5595940136642 -3.5 L 388.5595940136642 -0.5 L 221.1176876318321 -0.5 Z"/><text text-anchor="middle" pointer-events="none" font-size="8px" fill="#000000" x="206.7797970068321" y="3" transform="rotate(180 206.7797970068321 0)" font-family="sans-serif">knows</text></g><g class="relationship" transform="translate(-210.87038400886587 -156.8021177090419) rotate(482.25928613112933)"><path class="outline" fill="#A5ABB6" stroke="none" d="M 25 0.5 L 102.31769123801979 0.5 L 102.31769123801979 -0.5 L 25 -0.5 Z M 130.9934724880198 0.5 L 208.31116372603958 0.5 L 208.31116372603958 3.5 L 215.31116372603958 0 L 208.31116372603958 -3.5 L 208.31116372603958 -0.5 L 130.9934724880198 -0.5 Z"/><text text-anchor="middle" pointer-events="none" font-size="8px" fill="#000000" x="116.65558186301979" y="3" transform="rotate(180 116.65558186301979 0)" font-family="sans-serif">knows</text></g><g class="relationship" transform="translate(193.9052377343323 -238.3203106761942) rotate(511.8901916264624)"><path class="outline" fill="#A5ABB6" stroke="none" d="M 25 0.5 L 284.3243271579607 0.5 L 284.3243271579607 -0.5 L 25 -0.5 Z M 313.0001084079607 0.5 L 572.3244355659214 0.5 L 572.3244355659214 3.5 L 579.3244355659214 0 L 572.3244355659214 -3.5 L 572.3244355659214 -0.5 L 313.0001084079607 -0.5 Z"/><text text-anchor="middle" pointer-events="none" font-size="8px" fill="#000000" x="298.6622177829607" y="3" transform="rotate(180 298.6622177829607 0)" font-family="sans-serif">knows</text></g><g class="relationship" transform="translate(302.6734340846399 63.870628903276625) rotate(181.5579232938635)"><path class="outline" fill="#A5ABB6" stroke="none" d="M 25 0.5 L 303.18591625992934 0.5 L 303.18591625992934 -0.5 L 25 -0.5 Z M 331.86169750992934 0.5 L 610.0476137698587 0.5 L 610.0476137698587 3.5 L 617.0476137698587 0 L 610.0476137698587 -3.5 L 610.0476137698587 -0.5 L 331.86169750992934 -0.5 Z"/><text text-anchor="middle" pointer-events="none" font-size="8px" fill="#000000" x="317.52380688492934" y="3" transform="rotate(180 317.52380688492934 0)" font-family="sans-serif">knows</text></g><g class="relationship" transform="translate(-341.7864442233586 326.9097705452059) rotate(270.54120859651175)"><path class="outline" fill="#A5ABB6" stroke="none" d="M 25 0.5 L 122.41578493961316 0.5 L 122.41578493961316 -0.5 L 25 -0.5 Z M 151.09156618961316 0.5 L 248.50735112922632 0.5 L 248.50735112922632 3.5 L 255.50735112922632 0 L 248.50735112922632 -3.5 L 248.50735112922632 -0.5 L 151.09156618961316 -0.5 Z"/><text text-anchor="middle" pointer-events="none" font-size="8px" fill="#000000" x="136.75367556461316" y="3" font-family="sans-serif">knows</text></g><g class="relationship" transform="translate(-892.092461061025 -316.8727000199746) rotate(393.30460959785484)"><path class="outline" fill="#A5ABB6" stroke="none" d="M 25 0.5 L 312.97089689086283 0.5 L 312.97089689086283 -0.5 L 25 -0.5 Z M 341.64667814086283 0.5 L 629.6175750317257 0.5 L 629.6175750317257 3.5 L 636.6175750317257 0 L 629.6175750317257 -3.5 L 629.6175750317257 -0.5 L 341.64667814086283 -0.5 Z"/><text text-anchor="middle" pointer-events="none" font-size="8px" fill="#000000" x="327.30878751586283" y="3" font-family="sans-serif">knows</text></g><g class="relationship" transform="translate(-319.2953230558826 502.6663673347367) rotate(267.50988238761533)"><path class="outline" fill="#A5ABB6" stroke="none" d="M 25 0.5 L 210.50344217327816 0.5 L 210.50344217327816 -0.5 L 25 -0.5 Z M 239.17922342327816 0.5 L 424.6826655965563 0.5 L 424.6826655965563 3.5 L 431.6826655965563 0 L 424.6826655965563 -3.5 L 424.6826655965563 -0.5 L 239.17922342327816 -0.5 Z"/><text text-anchor="middle" pointer-events="none" font-size="8px" fill="#000000" x="224.84133279827816" y="3" transform="rotate(180 224.84133279827816 0)" font-family="sans-serif">knows</text></g><g class="relationship" transform="translate(358.9418581570489 -147.07031325690957) rotate(524.5083162840538)"><path class="outline" fill="#A5ABB6" stroke="none" d="M 25 0.5 L 344.36040430816803 0.5 L 344.36040430816803 -0.5 L 25 -0.5 Z M 373.03618555816803 0.5 L 692.3965898663361 0.5 L 692.3965898663361 3.5 L 699.3965898663361 0 L 692.3965898663361 -3.5 L 692.3965898663361 -0.5 L 373.03618555816803 -0.5 Z"/><text text-anchor="middle" pointer-events="none" font-size="8px" fill="#000000" x="358.69829493316803" y="3" transform="rotate(180 358.69829493316803 0)" font-family="sans-serif">knows</text></g><g class="relationship" transform="translate(228.43721876472318 385.20495603554724) rotate(210.833354042324)"><path class="outline" fill="#A5ABB6" stroke="none" d="M 25 0.5 L 312.66135282918503 0.5 L 312.66135282918503 -0.5 L 25 -0.5 Z M 341.33713407918503 0.5 L 628.9984869083701 0.5 L 628.9984869083701 3.5 L 635.9984869083701 0 L 628.9984869083701 -3.5 L 628.9984869083701 -0.5 L 341.33713407918503 -0.5 Z"/><text text-anchor="middle" pointer-events="none" font-size="8px" fill="#000000" x="326.99924345418503" y="3" transform="rotate(180 326.99924345418503 0)" font-family="sans-serif">knows</text></g><g class="relationship" transform="translate(-718.7592095803343 413.85816283469126) rotate(315.93398908660157)"><path class="outline" fill="#A5ABB6" stroke="none" d="M 25 0.5 L 246.3247794090633 0.5 L 246.3247794090633 -0.5 L 25 -0.5 Z M 275.0005606590633 0.5 L 496.3253400681266 0.5 L 496.3253400681266 3.5 L 503.3253400681266 0 L 496.3253400681266 -3.5 L 496.3253400681266 -0.5 L 275.0005606590633 -0.5 Z"/><text text-anchor="middle" pointer-events="none" font-size="8px" fill="#000000" x="260.6626700340633" y="3" font-family="sans-serif">knows</text></g><g class="relationship" transform="translate(9.865807721467093 -210.65548217290421) rotate(261.7323408682397)"><path class="outline" fill="#A5ABB6" stroke="none" d="M 25 0.5 L 59.1406353457142 0.5 L 59.1406353457142 -0.5 L 25 -0.5 Z M 87.8164165957142 0.5 L 121.9570519414284 0.5 L 121.9570519414284 3.5 L 128.9570519414284 0 L 121.9570519414284 -3.5 L 121.9570519414284 -0.5 L 87.8164165957142 -0.5 Z"/><text text-anchor="middle" pointer-events="none" font-size="8px" fill="#000000" x="73.4785259707142" y="3" transform="rotate(180 73.4785259707142 0)" font-family="sans-serif">knows</text></g><g class="relationship" transform="translate(-627.3931505801154 120.41113940479144) rotate(321.83616193661135)"><path class="outline" fill="#A5ABB6" stroke="none" d="M 25 0.5 L 373.33706168604476 0.5 L 373.33706168604476 -0.5 L 25 -0.5 Z M 402.01284293604476 0.5 L 750.3499046220895 0.5 L 750.3499046220895 3.5 L 757.3499046220895 0 L 750.3499046220895 -3.5 L 750.3499046220895 -0.5 L 402.01284293604476 -0.5 Z"/><text text-anchor="middle" pointer-events="none" font-size="8px" fill="#000000" x="387.67495231104476" y="3" font-family="sans-serif">knows</text></g><g class="relationship" transform="translate(-531.7808980096506 -343.2012543413748) rotate(357.81610768093014)"><path class="outline" fill="#A5ABB6" stroke="none" d="M 25 0.5 L 242.1049367552373 0.5 L 242.1049367552373 -0.5 L 25 -0.5 Z M 270.7807180052373 0.5 L 487.8856547604746 0.5 L 487.8856547604746 3.5 L 494.8856547604746 0 L 487.8856547604746 -3.5 L 487.8856547604746 -0.5 L 270.7807180052373 -0.5 Z"/><text text-anchor="middle" pointer-events="none" font-size="8px" fill="#000000" x="256.4428273802373" y="3" font-family="sans-serif">knows</text></g><g class="relationship" transform="translate(256.7475671177999 -391.1229750608289) rotate(534.0346937659485)"><path class="outline" fill="#A5ABB6" stroke="none" d="M 25 0.5 L 117.40465652514649 0.5 L 117.40465652514649 -0.5 L 25 -0.5 Z M 146.0804377751465 0.5 L 238.48509430029299 0.5 L 238.48509430029299 3.5 L 245.48509430029299 0 L 238.48509430029299 -3.5 L 238.48509430029299 -0.5 L 146.0804377751465 -0.5 Z"/><text text-anchor="middle" pointer-events="none" font-size="8px" fill="#000000" x="131.7425471501465" y="3" transform="rotate(180 131.7425471501465 0)" font-family="sans-serif">knows</text></g><g class="relationship" transform="translate(-863.9269098813003 -83.42899352133986) rotate(341.8258750902485)"><path class="outline" fill="#A5ABB6" stroke="none" d="M 25 0.5 L 430.3477733082265 0.5 L 430.3477733082265 -0.5 L 25 -0.5 Z M 459.0235545582265 0.5 L 864.371327866453 0.5 L 864.371327866453 3.5 L 871.371327866453 0 L 864.371327866453 -3.5 L 864.371327866453 -0.5 L 459.0235545582265 -0.5 Z"/><text text-anchor="middle" pointer-events="none" font-size="8px" fill="#000000" x="444.6856639332265" y="3" font-family="sans-serif">knows</text></g><g class="relationship" transform="translate(742.7640870375959 -224.45966080784925) rotate(190.39835596212794)"><path class="outline" fill="#A5ABB6" stroke="none" d="M 25 0.5 L 365.9842239081091 0.5 L 365.9842239081091 -0.5 L 25 -0.5 Z M 394.6600051581091 0.5 L 735.6442290662181 0.5 L 735.6442290662181 3.5 L 742.6442290662181 0 L 735.6442290662181 -3.5 L 735.6442290662181 -0.5 L 394.6600051581091 -0.5 Z"/><text text-anchor="middle" pointer-events="none" font-size="8px" fill="#000000" x="380.3221145331091" y="3" transform="rotate(180 380.3221145331091 0)" font-family="sans-serif">knows</text></g><g class="relationship" transform="translate(-210.87038400886587 -156.8021177090419) rotate(313.9226212311747)"><path class="outline" fill="#A5ABB6" stroke="none" d="M 25 0.5 L 125.30861776851958 0.5 L 125.30861776851958 -0.5 L 25 -0.5 Z M 153.98439901851958 0.5 L 254.29301678703916 0.5 L 254.29301678703916 3.5 L 261.29301678703916 0 L 254.29301678703916 -3.5 L 254.29301678703916 -0.5 L 153.98439901851958 -0.5 Z"/><text text-anchor="middle" pointer-events="none" font-size="8px" fill="#000000" x="139.64650839351958" y="3" font-family="sans-serif">knows</text></g><g class="relationship" transform="translate(-363.58870890231367 201.73034262076385) rotate(301.8849641322862)"><path class="outline" fill="#A5ABB6" stroke="none" d="M 25 0.5 L 314.71183583702066 0.5 L 314.71183583702066 -0.5 L 25 -0.5 Z M 343.38761708702066 0.5 L 633.0994529240413 0.5 L 633.0994529240413 3.5 L 640.0994529240413 0 L 633.0994529240413 -3.5 L 633.0994529240413 -0.5 L 343.38761708702066 -0.5 Z"/><text text-anchor="middle" pointer-events="none" font-size="8px" fill="#000000" x="329.04972646202066" y="3" font-family="sans-serif">knows</text></g><g class="relationship" transform="translate(-266.3456330873892 -405.1426073327969) rotate(369.41506873587286)"><path class="outline" fill="#A5ABB6" stroke="none" d="M 25 0.5 L 110.93315220318249 0.5 L 110.93315220318249 -0.5 L 25 -0.5 Z M 139.6089334531825 0.5 L 225.54208565636497 0.5 L 225.54208565636497 3.5 L 232.54208565636497 0 L 225.54208565636497 -3.5 L 225.54208565636497 -0.5 L 139.6089334531825 -0.5 Z"/><text text-anchor="middle" pointer-events="none" font-size="8px" fill="#000000" x="125.27104282818249" y="3" font-family="sans-serif">knows</text></g><g class="relationship" transform="translate(-892.092461061025 -316.8727000199746) rotate(356.998026741888)"><path class="outline" fill="#A5ABB6" stroke="none" d="M 25 0.5 L 422.67641755044474 0.5 L 422.67641755044474 -0.5 L 25 -0.5 Z M 451.35219880044474 0.5 L 849.0286163508895 0.5 L 849.0286163508895 3.5 L 856.0286163508895 0 L 849.0286163508895 -3.5 L 849.0286163508895 -0.5 L 451.35219880044474 -0.5 Z"/><text text-anchor="middle" pointer-events="none" font-size="8px" fill="#000000" x="437.01430817544474" y="3" font-family="sans-serif">knows</text></g><g class="relationship" transform="translate(702.8058345259058 367.9519838794994) rotate(225.62940800805484)"><path class="outline" fill="#A5ABB6" stroke="none" d="M 25 0.5 L 493.446416300844 0.5 L 493.446416300844 -0.5 L 25 -0.5 Z M 522.122197550844 0.5 L 990.568613851688 0.5 L 990.568613851688 3.5 L 997.568613851688 0 L 990.568613851688 -3.5 L 990.568613851688 -0.5 L 522.122197550844 -0.5 Z"/><text text-anchor="middle" pointer-events="none" font-size="8px" fill="#000000" x="507.784306925844" y="3" transform="rotate(180 507.784306925844 0)" font-family="sans-serif">knows</text></g><g class="relationship" transform="translate(206.00417696496294 236.69317246254116) rotate(291.7283037819649)"><path class="outline" fill="#A5ABB6" stroke="none" d="M 25 0.5 L 188.71981759473405 0.5 L 188.71981759473405 -0.5 L 25 -0.5 Z M 217.39559884473405 0.5 L 381.1154164394681 0.5 L 381.1154164394681 3.5 L 388.1154164394681 0 L 381.1154164394681 -3.5 L 381.1154164394681 -0.5 L 217.39559884473405 -0.5 Z"/><text text-anchor="middle" pointer-events="none" font-size="8px" fill="#000000" x="203.05770821973405" y="3" font-family="sans-serif">knows</text></g><g class="relationship" transform="translate(206.00417696496294 236.69317246254116) rotate(495.4180176745242)"><path class="outline" fill="#A5ABB6" stroke="none" d="M 25 0.5 L 126.16958711522048 0.5 L 126.16958711522048 -0.5 L 25 -0.5 Z M 154.84536836522048 0.5 L 256.01495548044096 0.5 L 256.01495548044096 3.5 L 263.01495548044096 0 L 256.01495548044096 -3.5 L 256.01495548044096 -0.5 L 154.84536836522048 -0.5 Z"/><text text-anchor="middle" pointer-events="none" font-size="8px" fill="#000000" x="140.50747774022048" y="3" transform="rotate(180 140.50747774022048 0)" font-family="sans-serif">knows</text></g><g class="relationship" transform="translate(244.52006848696155 112.19452545379607) rotate(435.1561320297606)"><path class="outline" fill="#A5ABB6" stroke="none" d="M 25 0.5 L 221.6017384693747 0.5 L 221.6017384693747 -0.5 L 25 -0.5 Z M 250.2775197193747 0.5 L 446.8792581887494 0.5 L 446.8792581887494 3.5 L 453.8792581887494 0 L 446.8792581887494 -3.5 L 446.8792581887494 -0.5 L 250.2775197193747 -0.5 Z"/><text text-anchor="middle" pointer-events="none" font-size="8px" fill="#000000" x="235.9396290943747" y="3" font-family="sans-serif">knows</text></g><g class="relationship" transform="translate(244.52006848696155 112.19452545379607) rotate(389.1647586792984)"><path class="outline" fill="#A5ABB6" stroke="none" d="M 25 0.5 L 244.57291369442834 0.5 L 244.57291369442834 -0.5 L 25 -0.5 Z M 273.24869494442834 0.5 L 492.8216086388567 0.5 L 492.8216086388567 3.5 L 499.8216086388567 0 L 492.8216086388567 -3.5 L 492.8216086388567 -0.5 L 273.24869494442834 -0.5 Z"/><text text-anchor="middle" pointer-events="none" font-size="8px" fill="#000000" x="258.91080431942834" y="3" font-family="sans-serif">knows</text></g><g class="relationship" transform="translate(244.52006848696155 112.19452545379607) rotate(505.295359980886)"><path class="outline" fill="#A5ABB6" stroke="none" d="M 25 0.5 L 325.07465472822304 0.5 L 325.07465472822304 -0.5 L 25 -0.5 Z M 353.75043597822304 0.5 L 653.8250907064461 0.5 L 653.8250907064461 3.5 L 660.8250907064461 0 L 653.8250907064461 -3.5 L 653.8250907064461 -0.5 L 353.75043597822304 -0.5 Z"/><text text-anchor="middle" pointer-events="none" font-size="8px" fill="#000000" x="339.41254535322304" y="3" transform="rotate(180 339.41254535322304 0)" font-family="sans-serif">knows</text></g><g class="relationship" transform="translate(244.52006848696155 112.19452545379607) rotate(210.57011361755798)"><path class="outline" fill="#A5ABB6" stroke="none" d="M 25 0.5 L 246.61421196506717 0.5 L 246.61421196506717 -0.5 L 25 -0.5 Z M 275.28999321506717 0.5 L 496.90420518013434 0.5 L 496.90420518013434 3.5 L 503.90420518013434 0 L 496.90420518013434 -3.5 L 496.90420518013434 -0.5 L 275.28999321506717 -0.5 Z"/><text text-anchor="middle" pointer-events="none" font-size="8px" fill="#000000" x="260.95210259006717" y="3" transform="rotate(180 260.95210259006717 0)" font-family="sans-serif">knows</text></g><g class="relationship" transform="translate(0.8664421745326365 438.8592535578908) rotate(198.09293800842528)"><path class="outline" fill="#A5ABB6" stroke="none" d="M 25 0.5 L 162.40062308919872 0.5 L 162.40062308919872 -0.5 L 25 -0.5 Z M 191.07640433919872 0.5 L 328.47702742839743 0.5 L 328.47702742839743 3.5 L 335.47702742839743 0 L 328.47702742839743 -3.5 L 328.47702742839743 -0.5 L 191.07640433919872 -0.5 Z"/><text text-anchor="middle" pointer-events="none" font-size="8px" fill="#000000" x="176.73851371419872" y="3" transform="rotate(180 176.73851371419872 0)" font-family="sans-serif">knows</text></g><g class="relationship" transform="translate(47.15967238497632 -119.854038903339) rotate(454.73652910565727)"><path class="outline" fill="#A5ABB6" stroke="none" d="M 25 0.5 L 262.4760433562529 0.5 L 262.4760433562529 -0.5 L 25 -0.5 Z M 291.1518246062529 0.5 L 528.6278679625058 0.5 L 528.6278679625058 3.5 L 535.6278679625058 0 L 528.6278679625058 -3.5 L 528.6278679625058 -0.5 L 291.1518246062529 -0.5 Z"/><text text-anchor="middle" pointer-events="none" font-size="8px" fill="#000000" x="276.8139339812529" y="3" transform="rotate(180 276.8139339812529 0)" font-family="sans-serif">knows</text></g><g class="relationship" transform="translate(47.15967238497632 -119.854038903339) rotate(480.4837657324181)"><path class="outline" fill="#A5ABB6" stroke="none" d="M 25 0.5 L 343.3479756081552 0.5 L 343.3479756081552 -0.5 L 25 -0.5 Z M 372.0237568581552 0.5 L 690.3717324663104 0.5 L 690.3717324663104 3.5 L 697.3717324663104 0 L 690.3717324663104 -3.5 L 690.3717324663104 -0.5 L 372.0237568581552 -0.5 Z"/><text text-anchor="middle" pointer-events="none" font-size="8px" fill="#000000" x="357.6858662331552" y="3" transform="rotate(180 357.6858662331552 0)" font-family="sans-serif">knows</text></g><g class="relationship" transform="translate(47.15967238497632 -119.854038903339) rotate(537.7105463606845)"><path class="outline" fill="#A5ABB6" stroke="none" d="M 25 0.5 L 438.0693215127127 0.5 L 438.0693215127127 -0.5 L 25 -0.5 Z M 466.7451027627127 0.5 L 879.8144242754254 0.5 L 879.8144242754254 3.5 L 886.8144242754254 0 L 879.8144242754254 -3.5 L 879.8144242754254 -0.5 L 466.7451027627127 -0.5 Z"/><text text-anchor="middle" pointer-events="none" font-size="8px" fill="#000000" x="452.4072121377127" y="3" transform="rotate(180 452.4072121377127 0)" font-family="sans-serif">knows</text></g><g class="relationship" transform="translate(47.15967238497632 -119.854038903339) rotate(201.0959203893866)"><path class="outline" fill="#A5ABB6" stroke="none" d="M 25 0.5 L 292.426578293365 0.5 L 292.426578293365 -0.5 L 25 -0.5 Z M 321.102359543365 0.5 L 588.52893783673 0.5 L 588.52893783673 3.5 L 595.52893783673 0 L 588.52893783673 -3.5 L 588.52893783673 -0.5 L 321.102359543365 -0.5 Z"/><text text-anchor="middle" pointer-events="none" font-size="8px" fill="#000000" x="306.764468918365" y="3" transform="rotate(180 306.764468918365 0)" font-family="sans-serif">knows</text></g><g class="relationship" transform="translate(-210.87038400886587 -156.8021177090419) rotate(465.1442191465035)"><path class="outline" fill="#A5ABB6" stroke="none" d="M 25 0.5 L 232.71959063457774 0.5 L 232.71959063457774 -0.5 L 25 -0.5 Z M 261.39537188457774 0.5 L 469.1149625191555 0.5 L 469.1149625191555 3.5 L 476.1149625191555 0 L 469.1149625191555 -3.5 L 469.1149625191555 -0.5 L 261.39537188457774 -0.5 Z"/><text text-anchor="middle" pointer-events="none" font-size="8px" fill="#000000" x="247.05748125957774" y="3" transform="rotate(180 247.05748125957774 0)" font-family="sans-serif">knows</text></g><g class="relationship" transform="translate(-210.87038400886587 -156.8021177090419) rotate(410.9745398075999)"><path class="outline" fill="#A5ABB6" stroke="none" d="M 25 0.5 L 331.0040642212635 0.5 L 331.0040642212635 -0.5 L 25 -0.5 Z M 359.6798454712635 0.5 L 665.683909692527 0.5 L 665.683909692527 3.5 L 672.683909692527 0 L 665.683909692527 -3.5 L 665.683909692527 -0.5 L 359.6798454712635 -0.5 Z"/><text text-anchor="middle" pointer-events="none" font-size="8px" fill="#000000" x="345.3419548462635" y="3" font-family="sans-serif">knows</text></g><g class="relationship" transform="translate(-210.87038400886587 -156.8021177090419) rotate(360.9784575963304)"><path class="outline" fill="#A5ABB6" stroke="none" d="M 25 0.5 L 267.10977971994316 0.5 L 267.10977971994316 -0.5 L 25 -0.5 Z M 295.78556096994316 0.5 L 537.8953406898863 0.5 L 537.8953406898863 3.5 L 544.8953406898863 0 L 537.8953406898863 -3.5 L 537.8953406898863 -0.5 L 295.78556096994316 -0.5 Z"/><text text-anchor="middle" pointer-events="none" font-size="8px" fill="#000000" x="281.44767034494316" y="3" font-family="sans-serif">knows</text></g><g class="relationship" transform="translate(-210.87038400886587 -156.8021177090419) rotate(210.14993026970956)"><path class="outline" fill="#A5ABB6" stroke="none" d="M 25 0.5 L 167.7208575745439 0.5 L 167.7208575745439 -0.5 L 25 -0.5 Z M 196.3966388245439 0.5 L 339.1174963990878 0.5 L 339.1174963990878 3.5 L 346.1174963990878 0 L 339.1174963990878 -3.5 L 339.1174963990878 -0.5 L 196.3966388245439 -0.5 Z"/><text text-anchor="middle" pointer-events="none" font-size="8px" fill="#000000" x="182.0587481995439" y="3" transform="rotate(180 182.0587481995439 0)" font-family="sans-serif">knows</text></g><g class="relationship" transform="translate(193.9052377343323 -238.3203106761942) rotate(292.35563163608225)"><path class="outline" fill="#A5ABB6" stroke="none" d="M 25 0.5 L 64.77235783937569 0.5 L 64.77235783937569 -0.5 L 25 -0.5 Z M 93.44813908937569 0.5 L 133.22049692875137 0.5 L 133.22049692875137 3.5 L 140.22049692875137 0 L 133.22049692875137 -3.5 L 133.22049692875137 -0.5 L 93.44813908937569 -0.5 Z"/><text text-anchor="middle" pointer-events="none" font-size="8px" fill="#000000" x="79.11024846437569" y="3" font-family="sans-serif">knows</text></g><g class="relationship" transform="translate(193.9052377343323 -238.3203106761942) rotate(388.93853820231635)"><path class="outline" fill="#A5ABB6" stroke="none" d="M 25 0.5 L 76.45374223493525 0.5 L 76.45374223493525 -0.5 L 25 -0.5 Z M 105.12952348493525 0.5 L 156.5832657198705 0.5 L 156.5832657198705 3.5 L 163.5832657198705 0 L 156.5832657198705 -3.5 L 156.5832657198705 -0.5 L 105.12952348493525 -0.5 Z"/><text text-anchor="middle" pointer-events="none" font-size="8px" fill="#000000" x="90.79163285993525" y="3" font-family="sans-serif">knows</text></g><g class="relationship" transform="translate(193.9052377343323 -238.3203106761942) rotate(441.78320699496413)"><path class="outline" fill="#A5ABB6" stroke="none" d="M 25 0.5 L 159.23731334167007 0.5 L 159.23731334167007 -0.5 L 25 -0.5 Z M 187.91309459167007 0.5 L 322.15040793334015 0.5 L 322.15040793334015 3.5 L 329.15040793334015 0 L 322.15040793334015 -3.5 L 322.15040793334015 -0.5 L 187.91309459167007 -0.5 Z"/><text text-anchor="middle" pointer-events="none" font-size="8px" fill="#000000" x="173.57520396667007" y="3" font-family="sans-serif">knows</text></g><g class="relationship" transform="translate(193.9052377343323 -238.3203106761942) rotate(516.4049791612491)"><path class="outline" fill="#A5ABB6" stroke="none" d="M 25 0.5 L 430.2746220113679 0.5 L 430.2746220113679 -0.5 L 25 -0.5 Z M 458.9504032613679 0.5 L 864.2250252727358 0.5 L 864.2250252727358 3.5 L 871.2250252727358 0 L 864.2250252727358 -3.5 L 864.2250252727358 -0.5 L 458.9504032613679 -0.5 Z"/><text text-anchor="middle" pointer-events="none" font-size="8px" fill="#000000" x="444.6125126363679" y="3" transform="rotate(180 444.6125126363679 0)" font-family="sans-serif">knows</text></g><g class="relationship" transform="translate(193.9052377343323 -238.3203106761942) rotate(211.16466498683178)"><path class="outline" fill="#A5ABB6" stroke="none" d="M 25 0.5 L 102.63777177399906 0.5 L 102.63777177399906 -0.5 L 25 -0.5 Z M 131.31355302399908 0.5 L 208.95132479799813 0.5 L 208.95132479799813 3.5 L 215.95132479799813 0 L 208.95132479799813 -3.5 L 208.95132479799813 -0.5 L 131.31355302399908 -0.5 Z"/><text text-anchor="middle" pointer-events="none" font-size="8px" fill="#000000" x="116.97566239899906" y="3" transform="rotate(180 116.97566239899906 0)" font-family="sans-serif">knows</text></g><g class="relationship" transform="translate(302.6734340846399 63.870628903276625) rotate(223.1543643861662)"><path class="outline" fill="#A5ABB6" stroke="none" d="M 25 0.5 L 182.84898719655 0.5 L 182.84898719655 -0.5 L 25 -0.5 Z M 211.52476844655 0.5 L 369.3737556431 0.5 L 369.3737556431 3.5 L 376.3737556431 0 L 369.3737556431 -3.5 L 369.3737556431 -0.5 L 211.52476844655 -0.5 Z"/><text text-anchor="middle" pointer-events="none" font-size="8px" fill="#000000" x="197.18687782155" y="3" transform="rotate(180 197.18687782155 0)" font-family="sans-serif">knows</text></g><g class="relationship" transform="translate(302.6734340846399 63.870628903276625) rotate(463.00852149339534)"><path class="outline" fill="#A5ABB6" stroke="none" d="M 25 0.5 L 147.06114322493963 0.5 L 147.06114322493963 -0.5 L 25 -0.5 Z M 175.73692447493963 0.5 L 297.79806769987925 0.5 L 297.79806769987925 3.5 L 304.79806769987925 0 L 297.79806769987925 -3.5 L 297.79806769987925 -0.5 L 175.73692447493963 -0.5 Z"/><text text-anchor="middle" pointer-events="none" font-size="8px" fill="#000000" x="161.39903384993963" y="3" transform="rotate(180 161.39903384993963 0)" font-family="sans-serif">knows</text></g><g class="relationship" transform="translate(-341.7864442233586 326.9097705452059) rotate(442.70763936530193)"><path class="outline" fill="#A5ABB6" stroke="none" d="M 25 0.5 L 70.75701871860704 0.5 L 70.75701871860704 -0.5 L 25 -0.5 Z M 99.43279996860704 0.5 L 145.18981868721409 0.5 L 145.18981868721409 3.5 L 152.18981868721409 0 L 145.18981868721409 -3.5 L 145.18981868721409 -0.5 L 99.43279996860704 -0.5 Z"/><text text-anchor="middle" pointer-events="none" font-size="8px" fill="#000000" x="85.09490934360704" y="3" font-family="sans-serif">knows</text></g><g class="relationship" transform="translate(-341.7864442233586 326.9097705452059) rotate(379.2926814746001)"><path class="outline" fill="#A5ABB6" stroke="none" d="M 25 0.5 L 357.74815277820966 0.5 L 357.74815277820966 -0.5 L 25 -0.5 Z M 386.42393402820966 0.5 L 719.1720868064193 0.5 L 719.1720868064193 3.5 L 726.1720868064193 0 L 719.1720868064193 -3.5 L 719.1720868064193 -0.5 L 386.42393402820966 -0.5 Z"/><text text-anchor="middle" pointer-events="none" font-size="8px" fill="#000000" x="372.08604340320966" y="3" font-family="sans-serif">knows</text></g><g class="relationship" transform="translate(-892.092461061025 -316.8727000199746) rotate(404.45826732462797)"><path class="outline" fill="#A5ABB6" stroke="none" d="M 25 0.5 L 352.38681542595634 0.5 L 352.38681542595634 -0.5 L 25 -0.5 Z M 381.06259667595634 0.5 L 708.4494121019127 0.5 L 708.4494121019127 3.5 L 715.4494121019127 0 L 708.4494121019127 -3.5 L 708.4494121019127 -0.5 L 381.06259667595634 -0.5 Z"/><text text-anchor="middle" pointer-events="none" font-size="8px" fill="#000000" x="366.72470605095634" y="3" font-family="sans-serif">knows</text></g><g class="relationship" transform="translate(-892.092461061025 -316.8727000199746) rotate(373.2232276100351)"><path class="outline" fill="#A5ABB6" stroke="none" d="M 25 0.5 L 332.04998769626275 0.5 L 332.04998769626275 -0.5 L 25 -0.5 Z M 360.72576894626275 0.5 L 667.7757566425255 0.5 L 667.7757566425255 3.5 L 674.7757566425255 0 L 667.7757566425255 -3.5 L 667.7757566425255 -0.5 L 360.72576894626275 -0.5 Z"/><text text-anchor="middle" pointer-events="none" font-size="8px" fill="#000000" x="346.38787832126275" y="3" font-family="sans-serif">knows</text></g><g class="relationship" transform="translate(-892.092461061025 -316.8727000199746) rotate(364.1371135487175)"><path class="outline" fill="#A5ABB6" stroke="none" d="M 25 0.5 L 526.5795686056047 0.5 L 526.5795686056047 -0.5 L 25 -0.5 Z M 555.2553498556047 0.5 L 1056.8349184612093 0.5 L 1056.8349184612093 3.5 L 1063.8349184612093 0 L 1056.8349184612093 -3.5 L 1056.8349184612093 -0.5 L 555.2553498556047 -0.5 Z"/><text text-anchor="middle" pointer-events="none" font-size="8px" fill="#000000" x="540.9174592306047" y="3" font-family="sans-serif">knows</text></g><g class="relationship" transform="translate(-319.2953230558826 502.6663673347367) rotate(231.1311753539651)"><path class="outline" fill="#A5ABB6" stroke="none" d="M 25 0.5 L 227.64292868932358 0.5 L 227.64292868932358 -0.5 L 25 -0.5 Z M 256.3187099393236 0.5 L 458.96163862864717 0.5 L 458.96163862864717 3.5 L 465.96163862864717 0 L 458.96163862864717 -3.5 L 458.96163862864717 -0.5 L 256.3187099393236 -0.5 Z"/><text text-anchor="middle" pointer-events="none" font-size="8px" fill="#000000" x="241.98081931432358" y="3" transform="rotate(180 241.98081931432358 0)" font-family="sans-serif">knows</text></g><g class="relationship" transform="translate(-319.2953230558826 502.6663673347367) rotate(366.02247175444955)"><path class="outline" fill="#A5ABB6" stroke="none" d="M 25 0.5 L 327.3158320974956 0.5 L 327.3158320974956 -0.5 L 25 -0.5 Z M 355.9916133474956 0.5 L 658.3074454449912 0.5 L 658.3074454449912 3.5 L 665.3074454449912 0 L 658.3074454449912 -3.5 L 658.3074454449912 -0.5 L 355.9916133474956 -0.5 Z"/><text text-anchor="middle" pointer-events="none" font-size="8px" fill="#000000" x="341.6537227224956" y="3" font-family="sans-serif">knows</text></g><g class="relationship" transform="translate(358.9418581570489 -147.07031325690957) rotate(463.7761705476489)"><path class="outline" fill="#A5ABB6" stroke="none" d="M 25 0.5 L 256.18237468546863 0.5 L 256.18237468546863 -0.5 L 25 -0.5 Z M 284.85815593546863 0.5 L 516.0405306209373 0.5 L 516.0405306209373 3.5 L 523.0405306209373 0 L 516.0405306209373 -3.5 L 516.0405306209373 -0.5 L 284.85815593546863 -0.5 Z"/><text text-anchor="middle" pointer-events="none" font-size="8px" fill="#000000" x="270.52026531046863" y="3" transform="rotate(180 270.52026531046863 0)" font-family="sans-serif">knows</text></g><g class="relationship" transform="translate(358.9418581570489 -147.07031325690957) rotate(505.92516098605927)"><path class="outline" fill="#A5ABB6" stroke="none" d="M 25 0.5 L 405.1506652479657 0.5 L 405.1506652479657 -0.5 L 25 -0.5 Z M 433.8264464979657 0.5 L 813.9771117459314 0.5 L 813.9771117459314 3.5 L 820.9771117459314 0 L 813.9771117459314 -3.5 L 813.9771117459314 -0.5 L 433.8264464979657 -0.5 Z"/><text text-anchor="middle" pointer-events="none" font-size="8px" fill="#000000" x="419.4885558729657" y="3" transform="rotate(180 419.4885558729657 0)" font-family="sans-serif">knows</text></g><g class="relationship" transform="translate(358.9418581570489 -147.07031325690957) rotate(449.3446606026379)"><path class="outline" fill="#A5ABB6" stroke="none" d="M 25 0.5 L 343.26708527181614 0.5 L 343.26708527181614 -0.5 L 25 -0.5 Z M 371.94286652181614 0.5 L 690.2099517936323 0.5 L 690.2099517936323 3.5 L 697.2099517936323 0 L 690.2099517936323 -3.5 L 690.2099517936323 -0.5 L 371.94286652181614 -0.5 Z"/><text text-anchor="middle" pointer-events="none" font-size="8px" fill="#000000" x="357.60497589681614" y="3" font-family="sans-serif">knows</text></g><g class="relationship" transform="translate(358.9418581570489 -147.07031325690957) rotate(481.43008872349964)"><path class="outline" fill="#A5ABB6" stroke="none" d="M 25 0.5 L 325.5028514952848 0.5 L 325.5028514952848 -0.5 L 25 -0.5 Z M 354.1786327452848 0.5 L 654.6814842405696 0.5 L 654.6814842405696 3.5 L 661.6814842405696 0 L 654.6814842405696 -3.5 L 654.6814842405696 -0.5 L 354.1786327452848 -0.5 Z"/><text text-anchor="middle" pointer-events="none" font-size="8px" fill="#000000" x="339.8407421202848" y="3" transform="rotate(180 339.8407421202848 0)" font-family="sans-serif">knows</text></g><g class="relationship" transform="translate(228.43721876472318 385.20495603554724) rotate(527.8962268245887)"><path class="outline" fill="#A5ABB6" stroke="none" d="M 25 0.5 L 262.25500490863317 0.5 L 262.25500490863317 -0.5 L 25 -0.5 Z M 290.93078615863317 0.5 L 528.1857910672663 0.5 L 528.1857910672663 3.5 L 535.1857910672663 0 L 528.1857910672663 -3.5 L 528.1857910672663 -0.5 L 290.93078615863317 -0.5 Z"/><text text-anchor="middle" pointer-events="none" font-size="8px" fill="#000000" x="276.59289553363317" y="3" transform="rotate(180 276.59289553363317 0)" font-family="sans-serif">knows</text></g><g class="relationship" transform="translate(228.43721876472318 385.20495603554724) rotate(250.25574437665443)"><path class="outline" fill="#A5ABB6" stroke="none" d="M 25 0.5 L 250.46517364660838 0.5 L 250.46517364660838 -0.5 L 25 -0.5 Z M 279.1409548966084 0.5 L 504.60612854321676 0.5 L 504.60612854321676 3.5 L 511.60612854321676 0 L 504.60612854321676 -3.5 L 504.60612854321676 -0.5 L 279.1409548966084 -0.5 Z"/><text text-anchor="middle" pointer-events="none" font-size="8px" fill="#000000" x="264.8030642716084" y="3" transform="rotate(180 264.8030642716084 0)" font-family="sans-serif">knows</text></g><g class="relationship" transform="translate(228.43721876472318 385.20495603554724) rotate(413.84160325500244)"><path class="outline" fill="#A5ABB6" stroke="none" d="M 25 0.5 L 99.755645121523 0.5 L 99.755645121523 -0.5 L 25 -0.5 Z M 128.431426371523 0.5 L 203.187071493046 0.5 L 203.187071493046 3.5 L 210.187071493046 0 L 203.187071493046 -3.5 L 203.187071493046 -0.5 L 128.431426371523 -0.5 Z"/><text text-anchor="middle" pointer-events="none" font-size="8px" fill="#000000" x="114.093535746523" y="3" font-family="sans-serif">knows</text></g><g class="relationship" transform="translate(-718.7592095803343 413.85816283469126) rotate(372.53406328845733)"><path class="outline" fill="#A5ABB6" stroke="none" d="M 25 0.5 L 186.77045098387842 0.5 L 186.77045098387842 -0.5 L 25 -0.5 Z M 215.44623223387842 0.5 L 377.21668321775684 0.5 L 377.21668321775684 3.5 L 384.21668321775684 0 L 377.21668321775684 -3.5 L 377.21668321775684 -0.5 L 215.44623223387842 -0.5 Z"/><text text-anchor="middle" pointer-events="none" font-size="8px" fill="#000000" x="201.10834160887842" y="3" font-family="sans-serif">knows</text></g><g class="relationship" transform="translate(-718.7592095803343 413.85816283469126) rotate(253.7264581411079)"><path class="outline" fill="#A5ABB6" stroke="none" d="M 25 0.5 L 241.18342948559382 0.5 L 241.18342948559382 -0.5 L 25 -0.5 Z M 269.8592107355938 0.5 L 486.04264022118764 0.5 L 486.04264022118764 3.5 L 493.04264022118764 0 L 486.04264022118764 -3.5 L 486.04264022118764 -0.5 L 269.8592107355938 -0.5 Z"/><text text-anchor="middle" pointer-events="none" font-size="8px" fill="#000000" x="255.52132011059382" y="3" transform="rotate(180 255.52132011059382 0)" font-family="sans-serif">knows</text></g><g class="relationship" transform="translate(9.865807721467093 -210.65548217290421) rotate(186.71638309656606)"><path class="outline" fill="#A5ABB6" stroke="none" d="M 25 0.5 L 436.2575883197595 0.5 L 436.2575883197595 -0.5 L 25 -0.5 Z M 464.9333695697595 0.5 L 876.190957889519 0.5 L 876.190957889519 3.5 L 883.190957889519 0 L 876.190957889519 -3.5 L 876.190957889519 -0.5 L 464.9333695697595 -0.5 Z"/><text text-anchor="middle" pointer-events="none" font-size="8px" fill="#000000" x="450.5954789447595" y="3" transform="rotate(180 450.5954789447595 0)" font-family="sans-serif">knows</text></g><g class="relationship" transform="translate(9.865807721467093 -210.65548217290421) rotate(215.15029841561545)"><path class="outline" fill="#A5ABB6" stroke="none" d="M 25 0.5 L 151.06888979445512 0.5 L 151.06888979445512 -0.5 L 25 -0.5 Z M 179.74467104445512 0.5 L 305.81356083891023 0.5 L 305.81356083891023 3.5 L 312.81356083891023 0 L 305.81356083891023 -3.5 L 305.81356083891023 -0.5 L 179.74467104445512 -0.5 Z"/><text text-anchor="middle" pointer-events="none" font-size="8px" fill="#000000" x="165.40678041945512" y="3" transform="rotate(180 165.40678041945512 0)" font-family="sans-serif">knows</text></g><g class="relationship" transform="translate(-627.3931505801154 120.41113940479144) rotate(220.75411558319087)"><path class="outline" fill="#A5ABB6" stroke="none" d="M 25 0.5 L 138.28627396883678 0.5 L 138.28627396883678 -0.5 L 25 -0.5 Z M 166.96205521883678 0.5 L 280.24832918767356 0.5 L 280.24832918767356 3.5 L 287.24832918767356 0 L 280.24832918767356 -3.5 L 280.24832918767356 -0.5 L 166.96205521883678 -0.5 Z"/><text text-anchor="middle" pointer-events="none" font-size="8px" fill="#000000" x="152.62416459383678" y="3" transform="rotate(180 152.62416459383678 0)" font-family="sans-serif">knows</text></g><g class="relationship" transform="translate(-531.7808980096506 -343.2012543413748) rotate(501.970944729805)"><path class="outline" fill="#A5ABB6" stroke="none" d="M 25 0.5 L 192.99533771780315 0.5 L 192.99533771780315 -0.5 L 25 -0.5 Z M 221.67111896780315 0.5 L 389.6664566856063 0.5 L 389.6664566856063 3.5 L 396.6664566856063 0 L 389.6664566856063 -3.5 L 389.6664566856063 -0.5 L 221.67111896780315 -0.5 Z"/><text text-anchor="middle" pointer-events="none" font-size="8px" fill="#000000" x="207.33322834280315" y="3" transform="rotate(180 207.33322834280315 0)" font-family="sans-serif">knows</text></g><g class="relationship" transform="translate(-531.7808980096506 -343.2012543413748) rotate(461.6529155172908)"><path class="outline" fill="#A5ABB6" stroke="none" d="M 25 0.5 L 218.8465799664652 0.5 L 218.8465799664652 -0.5 L 25 -0.5 Z M 247.5223612164652 0.5 L 441.3689411829304 0.5 L 441.3689411829304 3.5 L 448.3689411829304 0 L 441.3689411829304 -3.5 L 441.3689411829304 -0.5 L 247.5223612164652 -0.5 Z"/><text text-anchor="middle" pointer-events="none" font-size="8px" fill="#000000" x="233.1844705914652" y="3" transform="rotate(180 233.1844705914652 0)" font-family="sans-serif">knows</text></g><g class="relationship" transform="translate(-363.58870890231367 201.73034262076385) rotate(334.23113567746486)"><path class="outline" fill="#A5ABB6" stroke="none" d="M 25 0.5 L 383.3205312845428 0.5 L 383.3205312845428 -0.5 L 25 -0.5 Z M 411.9963125345428 0.5 L 770.3168438190856 0.5 L 770.3168438190856 3.5 L 777.3168438190856 0 L 770.3168438190856 -3.5 L 770.3168438190856 -0.5 L 411.9963125345428 -0.5 Z"/><text text-anchor="middle" pointer-events="none" font-size="8px" fill="#000000" x="397.6584219095428" y="3" font-family="sans-serif">knows</text></g><g class="relationship" transform="translate(-363.58870890231367 201.73034262076385) rotate(197.13220862418984)"><path class="outline" fill="#A5ABB6" stroke="none" d="M 25 0.5 L 120.1889149786737 0.5 L 120.1889149786737 -0.5 L 25 -0.5 Z M 148.8646962286737 0.5 L 244.0536112073474 0.5 L 244.0536112073474 3.5 L 251.0536112073474 0 L 244.0536112073474 -3.5 L 244.0536112073474 -0.5 L 148.8646962286737 -0.5 Z"/><text text-anchor="middle" pointer-events="none" font-size="8px" fill="#000000" x="134.5268056036737" y="3" transform="rotate(180 134.5268056036737 0)" font-family="sans-serif">knows</text></g><g class="relationship" transform="translate(-363.58870890231367 201.73034262076385) rotate(252.8472495034158)"><path class="outline" fill="#A5ABB6" stroke="none" d="M 25 0.5 L 267.31078017868134 0.5 L 267.31078017868134 -0.5 L 25 -0.5 Z M 295.98656142868134 0.5 L 538.2973416073627 0.5 L 538.2973416073627 3.5 L 545.2973416073627 0 L 538.2973416073627 -3.5 L 538.2973416073627 -0.5 L 295.98656142868134 -0.5 Z"/><text text-anchor="middle" pointer-events="none" font-size="8px" fill="#000000" x="281.64867080368134" y="3" transform="rotate(180 281.64867080368134 0)" font-family="sans-serif">knows</text></g><g class="relationship" transform="translate(-363.58870890231367 201.73034262076385) rotate(209.68024993816096)"><path class="outline" fill="#A5ABB6" stroke="none" d="M 25 0.5 L 270.1092235938675 0.5 L 270.1092235938675 -0.5 L 25 -0.5 Z M 298.7850048438675 0.5 L 543.894228437735 0.5 L 543.894228437735 3.5 L 550.894228437735 0 L 543.894228437735 -3.5 L 543.894228437735 -0.5 L 298.7850048438675 -0.5 Z"/><text text-anchor="middle" pointer-events="none" font-size="8px" fill="#000000" x="284.4471142188675" y="3" transform="rotate(180 284.4471142188675 0)" font-family="sans-serif">knows</text></g><g class="relationship" transform="translate(-363.58870890231367 201.73034262076385) rotate(440.12000833838283)"><path class="outline" fill="#A5ABB6" stroke="none" d="M 25 0.5 L 45.69404606951175 0.5 L 45.69404606951175 -0.5 L 25 -0.5 Z M 74.36982731951176 0.5 L 95.0638733890235 0.5 L 95.0638733890235 3.5 L 102.0638733890235 0 L 95.0638733890235 -3.5 L 95.0638733890235 -0.5 L 74.36982731951176 -0.5 Z"/><text text-anchor="middle" pointer-events="none" font-size="8px" fill="#000000" x="60.03193669451175" y="3" font-family="sans-serif">knows</text></g></g><g class="layer nodes"><g class="node" transform="translate(206.00417696496294,236.69317246254116)"><circle class="outline" cx="0" cy="0" r="25" fill="#F79767" stroke="#f36924" stroke-width="2px"/><text text-anchor="middle" pointer-events="none" font-family="sans-serif" dy="1.5625" font-size="25" fill="#FFFFFF"/><text text-anchor="middle" pointer-events="none" y="5" font-size="10px" fill="#FFFFFF" font-family="sans-serif"> </text></g><g class="node" transform="translate(-339.13684710568015,46.414933386571064)"><circle class="outline" cx="0" cy="0" r="25" fill="#F79767" stroke="#f36924" stroke-width="2px"/><text text-anchor="middle" pointer-events="none" font-family="sans-serif" dy="1.5625" font-size="25" fill="#FFFFFF"/><text text-anchor="middle" pointer-events="none" y="5" font-size="10px" fill="#FFFFFF" font-family="sans-serif"> </text></g><g class="node" transform="translate(244.52006848696155,112.19452545379607)"><circle class="outline" cx="0" cy="0" r="25" fill="#F79767" stroke="#f36924" stroke-width="2px"/><text text-anchor="middle" pointer-events="none" font-family="sans-serif" dy="1.5625" font-size="25" fill="#FFFFFF"/><text text-anchor="middle" pointer-events="none" y="5" font-size="10px" fill="#FFFFFF" font-family="sans-serif"> </text></g><g class="node" transform="translate(367.20219284483153,575.0923978689186)"><circle class="outline" cx="0" cy="0" r="25" fill="#F79767" stroke="#f36924" stroke-width="2px"/><text text-anchor="middle" pointer-events="none" font-family="sans-serif" dy="1.5625" font-size="25" fill="#FFFFFF"/><text text-anchor="middle" pointer-events="none" y="5" font-size="10px" fill="#FFFFFF" font-family="sans-serif"> </text></g><g class="node" transform="translate(0.8664421745326365,438.8592535578908)"><circle class="outline" cx="0" cy="0" r="25" fill="#F79767" stroke="#f36924" stroke-width="2px"/><text text-anchor="middle" pointer-events="none" font-family="sans-serif" dy="1.5625" font-size="25" fill="#FFFFFF"/><text text-anchor="middle" pointer-events="none" y="5" font-size="10px" fill="#FFFFFF" font-family="sans-serif"> </text></g><g class="node" transform="translate(47.15967238497632,-119.854038903339)"><circle class="outline" cx="0" cy="0" r="25" fill="#F79767" stroke="#f36924" stroke-width="2px"/><text text-anchor="middle" pointer-events="none" font-family="sans-serif" dy="1.5625" font-size="25" fill="#FFFFFF"/><text text-anchor="middle" pointer-events="none" y="5" font-size="10px" fill="#FFFFFF" font-family="sans-serif"> </text></g><g class="node" transform="translate(-210.87038400886587,-156.8021177090419)"><circle class="outline" cx="0" cy="0" r="25" fill="#F79767" stroke="#f36924" stroke-width="2px"/><text text-anchor="middle" pointer-events="none" font-family="sans-serif" dy="1.5625" font-size="25" fill="#FFFFFF"/><text text-anchor="middle" pointer-events="none" y="5" font-size="10px" fill="#FFFFFF" font-family="sans-serif"> </text></g><g class="node" transform="translate(193.9052377343323,-238.3203106761942)"><circle class="outline" cx="0" cy="0" r="25" fill="#F79767" stroke="#f36924" stroke-width="2px"/><text text-anchor="middle" pointer-events="none" font-family="sans-serif" dy="1.5625" font-size="25" fill="#FFFFFF"/><text text-anchor="middle" pointer-events="none" y="5" font-size="10px" fill="#FFFFFF" font-family="sans-serif"> </text></g><g class="node" transform="translate(302.6734340846399,63.870628903276625)"><circle class="outline" cx="0" cy="0" r="25" fill="#F79767" stroke="#f36924" stroke-width="2px"/><text text-anchor="middle" pointer-events="none" font-family="sans-serif" dy="1.5625" font-size="25" fill="#FFFFFF"/><text text-anchor="middle" pointer-events="none" y="5" font-size="10px" fill="#FFFFFF" font-family="sans-serif"> </text></g><g class="node" transform="translate(-341.7864442233586,326.9097705452059)"><circle class="outline" cx="0" cy="0" r="25" fill="#F79767" stroke="#f36924" stroke-width="2px"/><text text-anchor="middle" pointer-events="none" font-family="sans-serif" dy="1.5625" font-size="25" fill="#FFFFFF"/><text text-anchor="middle" pointer-events="none" y="5" font-size="10px" fill="#FFFFFF" font-family="sans-serif"> </text></g><g class="node" transform="translate(-892.092461061025,-316.8727000199746)"><circle class="outline" cx="0" cy="0" r="25" fill="#F79767" stroke="#f36924" stroke-width="2px"/><text text-anchor="middle" pointer-events="none" font-family="sans-serif" dy="1.5625" font-size="25" fill="#FFFFFF"/><text text-anchor="middle" pointer-events="none" y="5" font-size="10px" fill="#FFFFFF" font-family="sans-serif"> </text></g><g class="node" transform="translate(-319.2953230558826,502.6663673347367)"><circle class="outline" cx="0" cy="0" r="25" fill="#F79767" stroke="#f36924" stroke-width="2px"/><text text-anchor="middle" pointer-events="none" font-family="sans-serif" dy="1.5625" font-size="25" fill="#FFFFFF"/><text text-anchor="middle" pointer-events="none" y="5" font-size="10px" fill="#FFFFFF" font-family="sans-serif"> </text></g><g class="node" transform="translate(358.9418581570489,-147.07031325690957)"><circle class="outline" cx="0" cy="0" r="25" fill="#F79767" stroke="#f36924" stroke-width="2px"/><text text-anchor="middle" pointer-events="none" font-family="sans-serif" dy="1.5625" font-size="25" fill="#FFFFFF"/><text text-anchor="middle" pointer-events="none" y="5" font-size="10px" fill="#FFFFFF" font-family="sans-serif"> </text></g><g class="node" transform="translate(228.43721876472318,385.20495603554724)"><circle class="outline" cx="0" cy="0" r="25" fill="#F79767" stroke="#f36924" stroke-width="2px"/><text text-anchor="middle" pointer-events="none" font-family="sans-serif" dy="1.5625" font-size="25" fill="#FFFFFF"/><text text-anchor="middle" pointer-events="none" y="5" font-size="10px" fill="#FFFFFF" font-family="sans-serif"> </text></g><g class="node" transform="translate(-718.7592095803343,413.85816283469126)"><circle class="outline" cx="0" cy="0" r="25" fill="#F79767" stroke="#f36924" stroke-width="2px"/><text text-anchor="middle" pointer-events="none" font-family="sans-serif" dy="1.5625" font-size="25" fill="#FFFFFF"/><text text-anchor="middle" pointer-events="none" y="5" font-size="10px" fill="#FFFFFF" font-family="sans-serif"> </text></g><g class="node" transform="translate(9.865807721467093,-210.65548217290421)"><circle class="outline" cx="0" cy="0" r="25" fill="#F79767" stroke="#f36924" stroke-width="2px"/><text text-anchor="middle" pointer-events="none" font-family="sans-serif" dy="1.5625" font-size="25" fill="#FFFFFF"/><text text-anchor="middle" pointer-events="none" y="5" font-size="10px" fill="#FFFFFF" font-family="sans-serif"> </text></g><g class="node" transform="translate(-12.272852334304218,-363.01247601772474)"><circle class="outline" cx="0" cy="0" r="25" fill="#F79767" stroke="#f36924" stroke-width="2px"/><text text-anchor="middle" pointer-events="none" font-family="sans-serif" dy="1.5625" font-size="25" fill="#FFFFFF"/><text text-anchor="middle" pointer-events="none" y="5" font-size="10px" fill="#FFFFFF" font-family="sans-serif"> </text></g><g class="node" transform="translate(-627.3931505801154,120.41113940479144)"><circle class="outline" cx="0" cy="0" r="25" fill="#F79767" stroke="#f36924" stroke-width="2px"/><text text-anchor="middle" pointer-events="none" font-family="sans-serif" dy="1.5625" font-size="25" fill="#FFFFFF"/><text text-anchor="middle" pointer-events="none" y="5" font-size="10px" fill="#FFFFFF" font-family="sans-serif"> </text></g><g class="node" transform="translate(-531.7808980096506,-343.2012543413748)"><circle class="outline" cx="0" cy="0" r="25" fill="#F79767" stroke="#f36924" stroke-width="2px"/><text text-anchor="middle" pointer-events="none" font-family="sans-serif" dy="1.5625" font-size="25" fill="#FFFFFF"/><text text-anchor="middle" pointer-events="none" y="5" font-size="10px" fill="#FFFFFF" font-family="sans-serif"> </text></g><g class="node" transform="translate(256.7475671177999,-391.1229750608289)"><circle class="outline" cx="0" cy="0" r="25" fill="#F79767" stroke="#f36924" stroke-width="2px"/><text text-anchor="middle" pointer-events="none" font-family="sans-serif" dy="1.5625" font-size="25" fill="#FFFFFF"/><text text-anchor="middle" pointer-events="none" y="5" font-size="10px" fill="#FFFFFF" font-family="sans-serif"> </text></g><g class="node" transform="translate(-863.9269098813003,-83.42899352133986)"><circle class="outline" cx="0" cy="0" r="25" fill="#F79767" stroke="#f36924" stroke-width="2px"/><text text-anchor="middle" pointer-events="none" font-family="sans-serif" dy="1.5625" font-size="25" fill="#FFFFFF"/><text text-anchor="middle" pointer-events="none" y="5" font-size="10px" fill="#FFFFFF" font-family="sans-serif"> </text></g><g class="node" transform="translate(742.7640870375959,-224.45966080784925)"><circle class="outline" cx="0" cy="0" r="25" fill="#F79767" stroke="#f36924" stroke-width="2px"/><text text-anchor="middle" pointer-events="none" font-family="sans-serif" dy="1.5625" font-size="25" fill="#FFFFFF"/><text text-anchor="middle" pointer-events="none" y="5" font-size="10px" fill="#FFFFFF" font-family="sans-serif"> </text></g><g class="node" transform="translate(-363.58870890231367,201.73034262076385)"><circle class="outline" cx="0" cy="0" r="25" fill="#F79767" stroke="#f36924" stroke-width="2px"/><text text-anchor="middle" pointer-events="none" font-family="sans-serif" dy="1.5625" font-size="25" fill="#FFFFFF"/><text text-anchor="middle" pointer-events="none" y="5" font-size="10px" fill="#FFFFFF" font-family="sans-serif"> </text></g><g class="node" transform="translate(-266.3456330873892,-405.1426073327969)"><circle class="outline" cx="0" cy="0" r="25" fill="#F79767" stroke="#f36924" stroke-width="2px"/><text text-anchor="middle" pointer-events="none" font-family="sans-serif" dy="1.5625" font-size="25" fill="#FFFFFF"/><text text-anchor="middle" pointer-events="none" y="5" font-size="10px" fill="#FFFFFF" font-family="sans-serif"> </text></g><g class="node" transform="translate(702.8058345259058,367.9519838794994)"><circle class="outline" cx="0" cy="0" r="25" fill="#F79767" stroke="#f36924" stroke-width="2px"/><text text-anchor="middle" pointer-events="none" font-family="sans-serif" dy="1.5625" font-size="25" fill="#FFFFFF"/><text text-anchor="middle" pointer-events="none" y="5" font-size="10px" fill="#FFFFFF" font-family="sans-serif"> </text></g></g></svg>